<?xml version="1.0" encoding="utf-8"?>
<!-- Generator: Adobe Illustrator 21.1.0, SVG Export Plug-In . SVG Version: 6.00 Build 0)  -->
<svg version="1.1" id="Capa_1" xmlns="http://www.w3.org/2000/svg" xmlns:xlink="http://www.w3.org/1999/xlink" x="0px" y="0px"
	 viewBox="0 0 496 496" style="enable-background:new 0 0 496 496;" xml:space="preserve">
<style type="text/css">
	.st0{fill:#FFFFFF;}
</style>
<g>
	<g>
		<path class="st0" d="M387.3,368L496,259.3V240h-92.4c2.8-4.7,4.4-10.1,4.4-16c0-14.9-10.2-27.3-24-30.8
			c0.2-19.4,7.8-37.7,21.6-51.5l-11.3-11.3c-16.8,16.8-26.1,39.1-26.3,62.8c-13.8,3.6-24,16-24,30.9c0,5.9,1.7,11.3,4.4,16h-83.5
			c-5.8-29.1-8.9-58.7-8.9-88.3V128h-76.9l16.1-92.1c2-11.5,12-19.9,23.6-19.9H248V0h-29.1c-19.5,0-36,13.9-39.4,33.1L162.9,128
			h-19.4c-4-35.9-34.5-64-71.5-64C32.3,64,0,96.3,0,136c0,35.8,26.3,65.5,60.6,71c-2.2,18.1-5.6,36-10,53.7
			c-1.7,6.8-2.6,13.9-2.6,21c0,42.7,31.2,78.2,72,85.1V400h16v48h-24c-22.1,0-40,17.9-40,40v8h176v-8c0-22.1-17.9-40-40-40h-24v-48
			h16v-33.3c40.8-6.9,72-42.3,72-85.1c0-2.3-0.2-4.5-0.4-6.7l93.1,93.1h3.3v112h-80v16h176v-16h-80V368H387.3z M124,115.2
			c1.6,4,2.8,8.3,3.4,12.8h-25.5L124,115.2z M80,80.6c14.5,2.1,27.2,9.7,35.9,20.8L80,122.1V80.6z M80,151.7V144h80.1l-4.2,24H79.5
			C79.7,162.6,80,157.1,80,151.7z M64,80.6v41.5l-35.9-20.8C36.8,90.4,49.5,82.7,64,80.6z M20,156.8c-2.6-6.4-4-13.4-4-20.8
			s1.5-14.3,4-20.8L56,136L20,156.8z M28.1,170.6L64,149.9v1.8c0,13.2-0.8,26.3-1.9,39.4C48.3,188.6,36.4,181.1,28.1,170.6z
			 M208,464c10.4,0,19.3,6.7,22.6,16H89.4c3.3-9.3,12.2-16,22.6-16H208z M152,448v-48h16v48H152z M184,384h-48v-16h48V384z
			 M185.6,352h-51.3C95.6,352,64,320.4,64,281.6c0-5.8,0.7-11.5,2.1-17.1c6.6-26.4,10.8-53.4,12.7-80.6h74.3l-25,142.6l15.8,2.8
			L169.3,184H208v-16h-35.9l4.2-24H240v7.7c0,5.4,0.3,10.9,0.5,16.3H224v16h17.2c1.9,27.2,6.1,54.2,12.7,80.6
			c1.4,5.6,2.1,11.3,2.1,17.1C256,320.4,224.4,352,185.6,352z M368,210.2v5.8h16v-5.8c4.8,2.8,8,7.9,8,13.8c0,8.8-7.2,16-16,16
			s-16-7.2-16-16C360,218.1,363.2,213,368,210.2z M275.3,256h201.4l-31.9,31.9c-12.5-0.6-30.1-4.2-47.2-7.7
			c-19.4-4-39.4-8.2-53.6-8.2c-20.5,0-37.7,4.4-45.8,6.9L275.3,256z M380.7,352h-9.4l-60.1-60.1c8.2-1.9,19.8-3.9,32.8-3.9
			c12.6,0,31.8,4,50.4,7.8c12.2,2.5,24.7,5.1,35.8,6.7L380.7,352z"/>
	</g>
</g>
<g>
	<g>
		<rect x="224" y="272" class="st0" width="16" height="16"/>
	</g>
</g>
<g>
	<g>
		<rect x="184" y="216" class="st0" width="16" height="16"/>
	</g>
</g>
<g>
	<g>
		<rect x="168" y="312" class="st0" width="16" height="16"/>
	</g>
</g>
<g>
	<g>
		<rect x="80" y="280" class="st0" width="16" height="16"/>
	</g>
</g>
<g>
	<g>
		<rect x="104" y="208" class="st0" width="16" height="16"/>
	</g>
</g>
</svg>
