<?xml version="1.0" encoding="utf-8"?>
<!-- Generator: Adobe Illustrator 21.1.0, SVG Export Plug-In . SVG Version: 6.00 Build 0)  -->
<svg version="1.1" id="Capa_1" xmlns="http://www.w3.org/2000/svg" xmlns:xlink="http://www.w3.org/1999/xlink" x="0px" y="0px"
	 viewBox="0 0 480 480" style="enable-background:new 0 0 480 480;" xml:space="preserve">
<style type="text/css">
	.st0{fill:#FFFFFF;}
</style>
<g>
	<g>
		<rect x="112" y="355.8" class="st0" width="16" height="16"/>
	</g>
</g>
<g>
	<g>
		<rect x="40" y="379.8" class="st0" width="16" height="16"/>
	</g>
</g>
<g>
	<g>
		<rect x="168" y="395.8" class="st0" width="16" height="16"/>
	</g>
</g>
<g>
	<g>
		<rect x="288" y="171.8" class="st0" width="16" height="16"/>
	</g>
</g>
<g>
	<g>
		<rect x="344" y="179.8" class="st0" width="16" height="16"/>
	</g>
</g>
<g>
	<g>
		<rect x="328" y="219.8" class="st0" width="16" height="16"/>
	</g>
</g>
<g>
	<g>
		<rect x="400" y="219.8" class="st0" width="16" height="16"/>
	</g>
</g>
<g>
	<g>
		<rect x="424" y="171.8" class="st0" width="16" height="16"/>
	</g>
</g>
<g>
	<g>
		<path class="st0" d="M445,451.8l-13.7-27.6c-1.4-2.7-4.2-4.4-7.2-4.4h-56V283.4c58-4.6,104-58.2,104-123.6c0-0.9,0-2,0-3.2v-0.3
			c0-2.5-0.1-5.4-0.2-8.8c-0.8-24.1-3.4-70-8-82.5c-1.2-3.2-4.2-5.3-7.6-5.3h-36.6l3.4-17.9l43.5-14.5l-5.1-15.2l-48,16
			c-2.7,0.9-4.8,3.2-5.3,6.1l-4.9,25.5H263.8c-3.4,0-6.4,2.1-7.5,5.2c-4.6,12.5-7.2,58.3-8,82.5c-0.1,3.4-0.2,6.4-0.2,8.8v0.3
			c0,1.2,0,2.3,0,3.2c0,65.4,46,119,104,123.6v136.5h-22.8c17.8-40.4-0.6-87.5-41-105.3c-22.6-9.9-48.5-8.9-70.2,2.9l5.9-64.9
			c0.4-4.4-2.8-8.3-7.2-8.7c-0.3,0-0.5,0-0.8,0H8c-4.4,0-8,3.5-8,8c0,0.3,0,0.5,0,0.8l16,175.7v31.6c0,4.4,3.6,8,8,8h176
			c4.4,0,8-3.6,8-8v-8.1c13.8,10.4,30.7,16.1,48,16.1h224v-16L445,451.8L445,451.8z M192,451.8H32v-16h160V451.8z M192.7,419.8H31.3
			l-6.5-72H67c-5.3,11.2-1.1,24.7,9.6,30.9l41.6,24c3.6,2.1,7.8,3.2,12,3.2c2.1,0,4.2-0.3,6.2-0.8c6.2-1.6,11.4-5.7,14.6-11.2
			l24-41.6c0.8-1.4,1.4-3,1.9-4.5h22.3L192.7,419.8z M159.1,347.8l-22,38.1c-2.2,3.8-7.1,5.1-10.9,2.9l-41.6-24
			c-3.8-2.2-5.1-7.1-2.9-10.9l3.6-6.1H159.1z M94.4,331.8l11.2-19.4c1.1-1.8,2.8-3.2,4.9-3.7c0.7-0.2,1.4-0.3,2.1-0.3
			c1.4,0,2.8,0.4,4,1.1l38.8,22.4L94.4,331.8L94.4,331.8z M200.7,331.8h-24.2c-1.9-5.1-5.6-9.5-10.3-12.2l-41.6-24
			c-11.5-6.6-26.2-2.7-32.8,8.8c0,0,0,0,0,0L76,331.8H23.3l-6.5-72h190.4L200.7,331.8z M416.6,75.8H450c3,21.2,4.8,42.6,5.5,64
			h-51.1L416.6,75.8z M270,75.8h130.2l-12.2,64H264.6C265.2,118.4,267.1,97,270,75.8z M264,159.8c0-1.1,0-2.4,0-4h121l-8.9,46.5
			l15.7,3l9.4-49.5H456c0,1.6,0,2.9,0,4c0,59.6-43.1,108-96,108S264,219.4,264,159.8z M296,437.9c-26.7,21.3-65.5,17.8-88-7.8v-1.8
			l8.2-90.4c27.6-22,67.9-17.5,89.9,10.2C328.2,375.6,323.7,415.8,296,437.9z M303.8,451.8c6.1-4.6,11.6-10.1,16.2-16.2v0.2h99.1
			l8,16H303.8z"/>
	</g>
</g>
<g>
	<g>
		<path class="st0" d="M285.7,364.8c-3.2,3-8.2,3-11.3,0c-3.1-3.1-3.1-8.2,0-11.3l-11.3-11.3c-9.4,9.3-9.6,24.5-0.3,33.9
			s24.5,9.6,33.9,0.3c0.1-0.1,0.2-0.2,0.3-0.3L285.7,364.8z"/>
	</g>
</g>
</svg>
