<?xml version="1.0" encoding="utf-8"?>
<!-- Generator: Adobe Illustrator 21.1.0, SVG Export Plug-In . SVG Version: 6.00 Build 0)  -->
<svg version="1.1" id="Capa_1" xmlns="http://www.w3.org/2000/svg" xmlns:xlink="http://www.w3.org/1999/xlink" x="0px" y="0px"
	 viewBox="0 0 449.1 449.1" style="enable-background:new 0 0 449.1 449.1;" xml:space="preserve">
<style type="text/css">
	.st0{fill:#55D1F1;}
</style>
<path class="st0" d="M348.3,326.7c-30.2-9-72.9-13.8-123.6-13.8c-43.2,0-101.1,3.4-139.2,19.3V188.1l141-78.6
	c3.5-1.9,5.4-4.9,5.4-8.3c0-3.3-2-6.3-5.5-8.2L61.1,1.5c-1.8-1-3.6-1.5-5.5-1.5c-2.7,0-5.1,1.1-6.7,3.2C47.5,5,46.7,7.3,46.7,10
	l0,19.8h0l0,5c0,3.4,0.3,338,0.3,339.5c0,0.2,0,0.6,0,0.9l0,0.6c0,9,4.3,17.9,12.9,26.5c13.1,13.1,36,24.9,64.5,33.3
	c30.2,8.9,64.9,13.5,100.3,13.5c93,0,177.8-34.9,177.8-73.3C402.4,354,384.2,337.5,348.3,326.7z M165.4,365.1
	c0,8.7-14.5,18.4-35.3,18.4s-35.3-9.7-35.3-18.4c0-8.7,14.5-18.4,35.3-18.4S165.4,356.4,165.4,365.1z"/>
</svg>
