<?xml version="1.0" encoding="utf-8"?>
<!-- Generator: Adobe Illustrator 21.1.0, SVG Export Plug-In . SVG Version: 6.00 Build 0)  -->
<svg version="1.1" id="Capa_1" xmlns="http://www.w3.org/2000/svg" xmlns:xlink="http://www.w3.org/1999/xlink" x="0px" y="0px"
	 viewBox="0 0 511.6 511.6" style="enable-background:new 0 0 511.6 511.6;" xml:space="preserve">
<style type="text/css">
	.st0{fill:#55D1F1;}
</style>
<g>
	<g>
		<path class="st0" d="M18.8,128.5C6.3,141,0,156.1,0,173.6v237.5c0,17.5,6.3,32.5,18.8,45.1c12.6,12.6,27.6,18.8,45.1,18.8h9.1
			V109.6H64C46.4,109.6,31.4,115.9,18.8,128.5z"/>
		<path class="st0" d="M365.4,64c0-7.6-2.7-14.1-8-19.4c-5.3-5.3-11.8-8-19.4-8H173.6c-7.6,0-14.1,2.7-19.4,8
			c-5.3,5.3-8,11.8-8,19.4v45.7h-45.7v365.4h310.6V109.6h-45.7L365.4,64L365.4,64z M182.7,73.1h146.2v36.5H182.7V73.1z M365.4,319.8
			c0,2.7-0.9,4.9-2.6,6.6c-1.7,1.7-3.9,2.6-6.6,2.6h-64v64c0,2.7-0.9,4.9-2.6,6.6c-1.7,1.7-3.9,2.6-6.6,2.6h-54.8
			c-2.7,0-4.9-0.9-6.6-2.6c-1.7-1.7-2.6-3.9-2.6-6.6v-64h-64c-2.7,0-4.9-0.9-6.6-2.6c-1.7-1.7-2.6-3.9-2.6-6.6V265
			c0-2.7,0.9-4.9,2.6-6.6c1.7-1.7,3.9-2.6,6.6-2.6h64v-64c0-2.7,0.9-4.9,2.6-6.6c1.7-1.7,3.9-2.6,6.6-2.6h54.8
			c2.7,0,4.9,0.9,6.6,2.6c1.7,1.7,2.6,3.9,2.6,6.6v64h64c2.7,0,4.9,0.9,6.6,2.6c1.7,1.7,2.6,3.9,2.6,6.6L365.4,319.8L365.4,319.8
			L365.4,319.8z"/>
		<path class="st0" d="M492.8,128.5c-12.6-12.6-27.6-18.8-45.1-18.8h-9.1v365.4h9.1c17.5,0,32.5-6.3,45.1-18.8
			c12.6-12.6,18.8-27.6,18.8-45.1V173.6C511.6,156.1,505.3,141,492.8,128.5z"/>
	</g>
</g>
</svg>
