<?xml version="1.0" encoding="utf-8"?>
<!-- Generator: Adobe Illustrator 21.1.0, SVG Export Plug-In . SVG Version: 6.00 Build 0)  -->
<svg version="1.1" id="Capa_1" xmlns="http://www.w3.org/2000/svg" xmlns:xlink="http://www.w3.org/1999/xlink" x="0px" y="0px"
	 viewBox="0 0 456.3 456.3" style="enable-background:new 0 0 456.3 456.3;" xml:space="preserve">
<style type="text/css">
	.st0{fill:#55D1F1;}
</style>
<g>
	<path class="st0" d="M440,263.6c-4.6-0.3-9.6-0.4-14.8-0.4c-9.9,0-21.7,0.5-35.4,1.9l-1.2-51.7c5.4,1.9,11.1,2.9,17,2.9
		c28,0,50.7-22.7,50.7-50.7c0-16.1-7.5-31-20.3-40.6c0.4-2.5,0.6-5,0.6-7.6c0-19-12.2-35.6-29.7-41.6c1.9-5,2.9-10.3,2.9-15.6
		c0-24.2-19.7-43.9-43.9-43.9S322,36,322,60.2c0,0.4,0,0.9,0,1.4c-22,2.4-39.2,21-39.2,43.7c0,11.1,4.1,21.6,11.5,29.6
		c-10,9.5-15.7,22.6-15.7,36.6c0,28,22.7,50.7,50.7,50.7c6,0,11.8-1.1,17.3-3.1l-1.2,52.7c-27.3,5.5-59.3,14.1-95.9,27.5
		c-75,27.4-134.4,61-163.2,78.6c-19.7,12.1-36.6,23.6-48.9,33.5c-18.3,14.7-19.2,19.6-18.6,23c0.5,2.7,2.7,5.5,7.6,5.5h410.5
		c0.4,0,1,0.1,1.8,0.1c2.3,0,6.8-0.4,10.7-3.4c3.2-2.4,7-7.2,7-16.5V280.5C456.3,273.2,453.5,264.4,440,263.6z"/>
	<path class="st0" d="M227.6,274.7c2.7-1,4.6-3.7,4.9-6.6c0.2-2.5-0.8-4.7-2.8-6c-23.4-14.6-59.5-27.5-95.8-36.5l-1-43.6
		c3.7,1.1,7.5,1.7,11.4,1.7c21.6,0,39.2-17.6,39.2-39.2c0-12.2-5.6-23.5-15.1-30.9c0.3-1.7,0.4-3.4,0.4-5.1
		c0-14.3-8.9-26.9-21.9-31.8c1.2-3.5,1.8-7.2,1.8-10.9c0-18.8-15.3-34.1-34.1-34.1c-18.8,0-34,15.2-34.1,34
		C64,68,51.3,82.3,51.3,99.4c0,8.2,2.9,16,8.1,22.1c-7.2,7.3-11.2,17-11.2,27.5c0,21.6,17.6,39.2,39.2,39.2c4,0,7.9-0.6,11.6-1.8
		l-0.7,31.6c-21.4-3.8-41.3-6-56.9-6c-27.4,0-41.3,6.3-41.3,18.8V385c0,6.1,3.7,8.8,7.3,8.8c2.8,0,5.1-1.6,5.9-2.3
		c1.7-1.4,3.4-2.8,5-4.1c13.3-10.6,31.3-22.9,52.1-35.7C97.9,334.8,155.1,302.3,227.6,274.7z"/>
</g>
</svg>
