<?xml version="1.0" encoding="utf-8"?>
<!-- Generator: Adobe Illustrator 21.1.0, SVG Export Plug-In . SVG Version: 6.00 Build 0)  -->
<svg version="1.1" id="Capa_1" xmlns="http://www.w3.org/2000/svg" xmlns:xlink="http://www.w3.org/1999/xlink" x="0px" y="0px"
	 viewBox="0 0 480 480" style="enable-background:new 0 0 480 480;" xml:space="preserve">
<style type="text/css">
	.st0{fill:#FFFFFF;}
</style>
<g>
	<g>
		<path class="st0" d="M449.1,400.8c-8.8-4.1-18.8-8.8-37.7-8.8c-18.9,0-28.9,4.6-37.7,8.8c-8.3,3.9-15.5,7.2-30.9,7.2
			c-15.4,0-22.6-3.4-30.9-7.2c-8.8-4.1-18.7-8.8-37.7-8.8s-28.9,4.6-37.7,8.8c-8.3,3.9-15.5,7.2-30.9,7.2s-22.6-3.4-30.9-7.2
			c-8.8-4.1-18.8-8.8-37.7-8.8c-18.9,0-28.9,4.6-37.6,8.8c-8.3,3.9-15.5,7.2-30.9,7.2s-22.5-3.4-30.9-7.2C28.9,396.6,18.9,392,0,392
			v16c15.4,0,22.6,3.4,30.9,7.2c8.8,4.1,18.7,8.8,37.6,8.8c18.9,0,28.9-4.6,37.7-8.8c8.3-3.9,15.5-7.2,30.9-7.2
			c15.4,0,22.6,3.4,30.9,7.2c8.8,4.1,18.8,8.8,37.7,8.8c18.9,0,28.9-4.6,37.7-8.8c8.3-3.9,15.5-7.2,30.9-7.2
			c15.4,0,22.6,3.4,30.9,7.2c8.8,4.1,18.8,8.8,37.7,8.8c18.9,0,28.9-4.6,37.7-8.8c8.3-3.9,15.5-7.2,30.9-7.2s22.6,3.4,30.9,7.2
			c8.8,4.1,18.8,8.8,37.7,8.8v-16C464.6,408,457.4,404.6,449.1,400.8z"/>
	</g>
</g>
<g>
	<g>
		<path class="st0" d="M449.1,456.8c-8.8-4.1-18.8-8.8-37.7-8.8c-18.9,0-28.9,4.6-37.7,8.8c-8.3,3.9-15.5,7.2-30.9,7.2
			c-15.4,0-22.6-3.4-30.9-7.2c-8.8-4.1-18.7-8.8-37.7-8.8s-28.9,4.6-37.7,8.8c-8.3,3.9-15.5,7.2-30.9,7.2s-22.6-3.4-30.9-7.2
			c-8.8-4.1-18.8-8.8-37.7-8.8c-18.9,0-28.9,4.6-37.6,8.8c-8.3,3.9-15.5,7.2-30.9,7.2s-22.5-3.4-30.9-7.2C28.9,452.6,18.9,448,0,448
			v16c15.4,0,22.6,3.4,30.9,7.2c8.8,4.1,18.7,8.8,37.6,8.8c18.9,0,28.9-4.6,37.7-8.8c8.3-3.9,15.5-7.2,30.9-7.2
			c15.4,0,22.6,3.4,30.9,7.2c8.8,4.1,18.8,8.8,37.7,8.8c18.9,0,28.9-4.6,37.7-8.8c8.3-3.9,15.5-7.2,30.9-7.2
			c15.4,0,22.6,3.4,30.9,7.2c8.8,4.1,18.8,8.8,37.7,8.8c18.9,0,28.9-4.6,37.7-8.8c8.3-3.9,15.5-7.2,30.9-7.2s22.6,3.4,30.9,7.2
			c8.8,4.1,18.8,8.8,37.7,8.8v-16C464.6,464,457.4,460.6,449.1,456.8z"/>
	</g>
</g>
<g>
	<g>
		<path class="st0" d="M200,0c-22.1,0-40,17.9-40,40s17.9,40,40,40s40-17.9,40-40S222.1,0,200,0z M200,64c-13.2,0-24-10.8-24-24
			s10.8-24,24-24s24,10.8,24,24S213.2,64,200,64z"/>
	</g>
</g>
<g>
	<g>
		<path class="st0" d="M400,248h80v-16h-80v-56v-32c0-13.2,10.8-24,24-24v-16c-22.1,0-40,17.9-40,40v24h-96v-24
			c0-13.2,10.8-24,24-24v-16c-22.1,0-40,17.9-40,40v32v56H0v16h56v64h16v-64h200v56v32.1c-17.4,0.4-27,4.8-35.5,8.7
			c-8.3,3.9-15.5,7.2-30.9,7.2s-22.6-3.4-30.9-7.2c-8.8-4.1-18.8-8.8-37.7-8.8c-18.9,0-28.9,4.6-37.6,8.8
			c-8.3,3.9-15.5,7.2-30.9,7.2s-22.5-3.4-30.9-7.2C28.9,340.6,18.9,336,0,336v16c15.4,0,22.6,3.4,30.9,7.2
			c8.8,4.1,18.7,8.8,37.6,8.8c18.9,0,28.9-4.6,37.7-8.8c8.3-3.9,15.5-7.2,30.9-7.2c15.4,0,22.6,3.4,30.9,7.2
			c8.8,4.1,18.8,8.8,37.7,8.8c18.9,0,28.9-4.6,37.7-8.8c8.3-3.9,15.5-7.2,30.9-7.2c15.4,0,22.6,3.4,30.9,7.2
			c8.8,4.1,18.8,8.8,37.7,8.8c18.9,0,28.9-4.6,37.7-8.8c8.3-3.9,15.5-7.2,30.9-7.2s22.6,3.4,30.9,7.2c8.8,4.1,18.8,8.8,37.7,8.8v-16
			c-15.4,0-22.6-3.4-30.9-7.2c-8.8-4.1-18.8-8.8-37.7-8.8c-4.2,0-8,0.3-11.4,0.7V304V248z M288,184h96v48h-96V184z M288,248h96v48
			h-96V248z M384,340.4c-3.8,1.4-7.2,2.9-10.3,4.4c-8.3,3.9-15.5,7.2-30.9,7.2c-15.4,0-22.6-3.4-30.9-7.2c-6.4-3-13.4-6.2-23.9-7.8
			v-25h96V340.4z"/>
	</g>
</g>
<g>
	<g>
		<path class="st0" d="M448,24c-3.7,0-7.3,0.6-10.7,1.9C431.6,10.7,417,0,400,0s-31.6,10.7-37.3,25.9c-3.4-1.2-7-1.9-10.7-1.9
			c-17.6,0-32,14.4-32,32s14.4,32,32,32h96c17.6,0,32-14.4,32-32S465.6,24,448,24z M448,72h-96c-8.8,0-16-7.2-16-16s7.2-16,16-16
			c3.9,0,7.8,1.5,10.8,4.3c2.3,2.1,5.6,2.7,8.4,1.5c2.9-1.2,4.8-3.9,5-7C376.8,26,387.3,16,400,16s23.2,10,23.8,22.8
			c0.2,3.1,2.1,5.8,5,7c2.8,1.2,6.1,0.6,8.4-1.5c3-2.8,6.8-4.3,10.8-4.3c8.8,0,16,7.2,16,16S456.8,72,448,72z"/>
	</g>
</g>
<g>
	<g>
		<path class="st0" d="M128,64c-3.7,0-7.3,0.6-10.7,1.9C111.6,50.7,97,40,80,40S48.4,50.7,42.7,65.9c-3.4-1.2-7-1.9-10.7-1.9
			C14.4,64,0,78.4,0,96s14.4,32,32,32h96c17.6,0,32-14.4,32-32S145.6,64,128,64z M128,112H32c-8.8,0-16-7.2-16-16s7.2-16,16-16
			c3.9,0,7.8,1.5,10.8,4.3c2.3,2.1,5.6,2.7,8.4,1.5c2.9-1.2,4.8-3.9,5-7C56.8,66,67.3,56,80,56s23.2,10,23.8,22.8
			c0.2,3.1,2.1,5.8,5,7c2.8,1.2,6.2,0.6,8.4-1.5c3-2.8,6.8-4.3,10.8-4.3c8.8,0,16,7.2,16,16S136.8,112,128,112z"/>
	</g>
</g>
</svg>
