<?xml version="1.0" encoding="utf-8"?>
<!-- Generator: Adobe Illustrator 21.1.0, SVG Export Plug-In . SVG Version: 6.00 Build 0)  -->
<svg version="1.1" id="Capa_1" xmlns="http://www.w3.org/2000/svg" xmlns:xlink="http://www.w3.org/1999/xlink" x="0px" y="0px"
	 viewBox="0 0 512 512" style="enable-background:new 0 0 512 512;" xml:space="preserve">
<style type="text/css">
	.st0{fill:#FFFFFF;}
</style>
<g>
	<g>
		<path class="st0" d="M160,384.2L82,384L68.2,295c-1.8-12.5-12.7-21.9-25.2-21.9c-0.2,0-0.3,0-0.5,0c-14,0-25.5,11.3-25.6,25.4
			c0,1.1,0.1,2.3,0.2,3.3l13.1,110.9c1.5,12.9,12.4,22.6,25.4,22.6c0.1,0,0.1,0,0.2,0H160c14.1,0,25.6-11.5,25.6-25.6
			S174.1,384.2,160,384.2z M160,418.3H55.7c0,0,0,0-0.1,0c-4.3,0-8-3.2-8.5-7.6l-13.1-111c0-0.4-0.1-0.8-0.1-1.1
			c0-4.7,3.9-8.5,8.7-8.5c0.1,0,0.1,0,0.2,0c4.2,0,7.8,3.1,8.5,7.4l14.9,96.3c0.6,4.2,4.2,7.2,8.4,7.2l85.3,0.2
			c4.7,0,8.5,3.8,8.5,8.5C168.5,414.5,164.7,418.3,160,418.3z"/>
	</g>
</g>
<g>
	<g>
		
			<rect x="12.8" y="456.6" transform="matrix(0.3164 -0.9486 0.9486 0.3164 -404.7789 368.4945)" class="st0" width="81" height="17.1"/>
	</g>
</g>
<g>
	<g>
		
			<rect x="147.2" y="424.6" transform="matrix(0.9487 -0.3162 0.3162 0.9487 -139.0693 73.1021)" class="st0" width="17.1" height="81"/>
	</g>
</g>
<g>
	<g>
		<path class="st0" d="M375.5,307.2H136.5c-4.7,0-8.5,3.8-8.5,8.5v34.1c0,4.7,3.8,8.5,8.5,8.5h238.9c4.7,0,8.5-3.8,8.5-8.5v-34.1
			C384,311,380.2,307.2,375.5,307.2z M366.9,341.3H145.1v-17.1h221.9L366.9,341.3L366.9,341.3z"/>
	</g>
</g>
<g>
	<g>
		<path class="st0" d="M273.1,341.3h-34.1c-4.7,0-8.5,3.8-8.5,8.5v153.6c0,4.7,3.8,8.5,8.5,8.5h34.1c4.7,0,8.5-3.8,8.5-8.5V349.9
			C281.6,345.1,277.8,341.3,273.1,341.3z M264.5,494.9h-17.1V358.4h17.1V494.9z"/>
	</g>
</g>
<g>
	<g>
		<path class="st0" d="M503.2,74.7L486.1,6.5c-1-3.8-4.4-6.5-8.3-6.5H34.1c-3.9,0-7.3,2.7-8.3,6.5L8.8,74.7C8.1,77.3,8.7,80,10.3,82
			s4.1,3.3,6.7,3.3h477.9c2.6,0,5.1-1.2,6.7-3.3C503.3,80,503.9,77.3,503.2,74.7z M28,68.3l12.8-51.2h430.4L484,68.3H28z"/>
	</g>
</g>
<g>
	<g>
		<path class="st0" d="M290.1,68.3h-68.3c-4.7,0-8.5,3.8-8.5,8.5v25.6c0,23.5,19.1,42.7,42.7,42.7c23.5,0,42.7-19.1,42.7-42.7V76.8
			C298.7,72.1,294.9,68.3,290.1,68.3z M281.6,102.4c0,14.1-11.5,25.6-25.6,25.6s-25.6-11.5-25.6-25.6V85.3h51.2V102.4z"/>
	</g>
</g>
<g>
	<g>
		<path class="st0" d="M221.9,68.3h-68.3c-4.7,0-8.5,3.8-8.5,8.5v25.6c0,23.5,19.1,42.7,42.7,42.7c23.5,0,42.7-19.1,42.7-42.7V76.8
			C230.4,72.1,226.6,68.3,221.9,68.3z M213.3,102.4c0,14.1-11.5,25.6-25.6,25.6s-25.6-11.5-25.6-25.6V85.3h51.2L213.3,102.4
			L213.3,102.4z"/>
	</g>
</g>
<g>
	<g>
		<path class="st0" d="M153.6,68.3H85.3c-4.7,0-8.5,3.8-8.5,8.5v25.6c0,23.5,19.1,42.7,42.7,42.7s42.7-19.1,42.7-42.7V76.8
			C162.1,72.1,158.3,68.3,153.6,68.3z M145.1,102.4c0,14.1-11.5,25.6-25.6,25.6s-25.6-11.5-25.6-25.6V85.3h51.2V102.4z"/>
	</g>
</g>
<g>
	<g>
		<path class="st0" d="M85.3,68.3H17.1c-4.7,0-8.5,3.8-8.5,8.5v25.6c0,23.5,19.1,42.7,42.7,42.7c23.5,0,42.7-19.1,42.7-42.7V76.8
			C93.9,72.1,90,68.3,85.3,68.3z M76.8,102.4c0,14.1-11.5,25.6-25.6,25.6s-25.6-11.5-25.6-25.6V85.3h51.2V102.4z"/>
	</g>
</g>
<g>
	<g>
		<path class="st0" d="M358.4,68.3h-68.3c-4.7,0-8.5,3.8-8.5,8.5v25.6c0,23.5,19.1,42.7,42.7,42.7c23.5,0,42.7-19.1,42.7-42.7V76.8
			C366.9,72.1,363.1,68.3,358.4,68.3z M349.9,102.4c0,14.1-11.5,25.6-25.6,25.6s-25.6-11.5-25.6-25.6V85.3h51.2V102.4z"/>
	</g>
</g>
<g>
	<g>
		<path class="st0" d="M426.7,68.3h-68.3c-4.7,0-8.5,3.8-8.5,8.5v25.6c0,23.5,19.1,42.7,42.7,42.7c23.5,0,42.7-19.1,42.7-42.7V76.8
			C435.2,72.1,431.4,68.3,426.7,68.3z M418.1,102.4c0,14.1-11.5,25.6-25.6,25.6s-25.6-11.5-25.6-25.6V85.3h51.2V102.4z"/>
	</g>
</g>
<g>
	<g>
		<path class="st0" d="M494.9,68.3h-68.3c-4.7,0-8.5,3.8-8.5,8.5v25.6c0,23.5,19.1,42.7,42.7,42.7c23.5,0,42.7-19.1,42.7-42.7V76.8
			C503.5,72.1,499.7,68.3,494.9,68.3z M486.4,102.4c0,14.1-11.5,25.6-25.6,25.6s-25.6-11.5-25.6-25.6V85.3h51.2V102.4z"/>
	</g>
</g>
<g>
	<g>
		<rect x="213.3" y="8.5" class="st0" width="17.1" height="68.3"/>
	</g>
</g>
<g>
	<g>
		<rect x="281.6" y="8.5" class="st0" width="17.1" height="68.3"/>
	</g>
</g>
<g>
	<g>
		<rect x="145.1" y="8.5" class="st0" width="17.1" height="68.3"/>
	</g>
</g>
<g>
	<g>
		<rect x="349.9" y="8.5" class="st0" width="17.1" height="68.3"/>
	</g>
</g>
<g>
	<g>
		
			<rect x="55.2" y="34.1" transform="matrix(0.124 -0.9923 0.9923 0.124 36.143 126.2846)" class="st0" width="68.8" height="17.1"/>
	</g>
</g>
<g>
	<g>
		
			<rect x="413.9" y="8.3" transform="matrix(0.9923 -0.124 0.124 0.9923 -2.0311 52.7077)" class="st0" width="17.1" height="68.8"/>
	</g>
</g>
<g>
	<g>
		<path class="st0" d="M469.6,273.1c-0.2,0-0.3,0-0.5,0c-12.6,0-23.5,9.4-25.3,21.8L430,384l-78,0.2c-14.1,0-25.6,11.5-25.6,25.6
			s11.5,25.6,25.6,25.6h104.2c0.1,0,0.1,0,0.2,0c13,0,23.9-9.7,25.4-22.6l13-110.9c0.1-1.1,0.2-2.3,0.2-3.4
			C495,284.4,483.5,273.1,469.6,273.1z M477.9,299.8l-13.1,111c-0.5,4.3-4.1,7.6-8.5,7.6c0,0,0,0-0.1,0H352c-4.7,0-8.5-3.8-8.5-8.5
			s3.8-8.5,8.5-8.5l85.3-0.2c4.2,0,7.8-3.1,8.4-7.2l14.9-96.4c0.6-4.2,4.2-7.3,8.6-7.3c0.1,0,0.1,0,0.2,0c4.7,0,8.5,3.8,8.5,8.5
			C478,299,478,299.4,477.9,299.8z"/>
	</g>
</g>
<g>
	<g>
		
			<rect x="450.1" y="424.6" transform="matrix(0.9487 -0.3162 0.3162 0.9487 -123.5292 168.891)" class="st0" width="17.1" height="81"/>
	</g>
</g>
<g>
	<g>
		
			<rect x="315.8" y="456.5" transform="matrix(0.3165 -0.9486 0.9486 0.3165 -197.5845 655.8247)" class="st0" width="81" height="17.1"/>
	</g>
</g>
<g>
	<g>
		<rect y="494.9" class="st0" width="512" height="17.1"/>
	</g>
</g>
</svg>
