<?xml version="1.0" encoding="utf-8"?>
<!-- Generator: Adobe Illustrator 21.1.0, SVG Export Plug-In . SVG Version: 6.00 Build 0)  -->
<svg version="1.1" id="Capa_1" xmlns="http://www.w3.org/2000/svg" xmlns:xlink="http://www.w3.org/1999/xlink" x="0px" y="0px"
	 viewBox="0 0 496 496" style="enable-background:new 0 0 496 496;" xml:space="preserve">
<style type="text/css">
	.st0{fill:#FFFFFF;}
</style>
<g>
	<g>
		<path class="st0" d="M435.1,141.8l-30.7-49.2c-4.7-7.5-12.4-12.8-21.1-14.6L360,73.4v-4.5c4.9-5.6,8-12.9,8-20.9V32
			c0-17.6-14.4-32-32-32s-32,14.4-32,32v16c0,6.8,2.2,13.2,5.9,18.4l-1.9,3.8l-5.8-1.9c-8.6-2.8-17.5-4.3-26.5-4.3h-33.8
			c-10.5,0-20.9-2.5-30.3-7.2C200,51.1,187,48,174.1,48h-28.8l-24-8H100L84,61.3C77.3,70.2,70,78.7,61.7,87
			C58,90.7,56,95.5,56,100.7c0,10.6,8.7,19.3,19.3,19.3c6,0,11.7,2.4,16,6.6l36.7,36.7c7.4,7.4,16,13.6,25.4,18.3
			c13.5,6.7,28.6,10.3,43.6,10.3l7.3,6.1c26.1,21.8,55.2,39.6,86.4,53c4.7,2,8.6,5.6,10.9,10.2c1.5,3,2.3,6.3,2.3,9.7v76.3
			c0,7.5-1.2,15-3.6,22.1c-2.9,8.8-4.4,17.9-4.4,27.2v14.7c0,7.5-1.2,15-3.6,22.1c-2.9,8.8-4.4,17.9-4.4,27.2V472
			c0,13.2,10.8,24,24,24s24-10.8,24-24v-11.4c0-7.5,1.2-15,3.6-22.1l8-24c2.9-8.8,4.4-17.9,4.4-27.2v-49.8c0-5.7,0.7-11.4,2.1-17
			l9.8-39.4c2.7-10.8,4.1-21.8,4.1-33v-4l20.4-13.6l43.8-50.6c5-5.9,7.8-13.3,7.8-21.1C440,152.9,438.3,147,435.1,141.8z M376,142.8
			l13.8,17.2l-13.9,17.3L376,142.8z M320,32c0-8.8,7.2-16,16-16s16,7.2,16,16v16c0,8.8-7.2,16-16,16s-16-7.2-16-16V32z M343.6,79
			l-1.3,2.7c-1.9,3.9-5.9,6.3-10.2,6.3s-8.3-2.4-10.2-6.3l-0.8-1.7l1.6-3.1c4.1,1.9,8.7,3.1,13.5,3.1C338.6,80,341.1,79.6,343.6,79z
			 M118.7,56l24,8h31.4c10.5,0,20.9,2.5,30.3,7.2C216,76.9,229,80,241.9,80h33.8c0.2,0,0.4,0,0.6,0c2.4,3.3,3.7,7.2,3.7,11.3V104
			h-6.1c-10.5,0-21-2.5-30.3-7.2C232,91.1,219,88,206.1,88h-1.8c-7.3,0-14.5-1.2-21.4-3.5L145.3,72h-20.4l-8-16H118.7z M193.8,175.8
			c-11.5-0.5-22.9-3.3-33.2-8.4c-7.9-4-15-9.1-21.3-15.3l-36.7-36.7c-7.3-7.3-17-11.3-27.3-11.3c-1.8,0-3.3-1.5-3.3-3.3
			c0-0.9,0.4-1.7,1.4-2.8c8.4-8.4,16.3-17.5,23.4-27l5.8-7.8l1.4,2.7v19.9c0,14.1,7.7,27.1,20.1,33.9l72,39.3l1.7,0.6L193.8,175.8z
			 M203.3,144.7l-71.5-39c-6.6-3.6-11-10.3-11.7-17.7h22.6l35.1,11.7c8.5,2.8,17.5,4.3,26.5,4.3h1.8c10.5,0,20.9,2.5,30.3,7.2
			c11.6,5.8,24.5,8.8,37.5,8.8h6.1v52.6L203.3,144.7z M336,387.4c0,7.5-1.2,15-3.6,22.1l-8,24c-2.9,8.8-4.4,17.9-4.4,27.2V472
			c0,4.4-3.6,8-8,8s-8-3.6-8-8v-11.4c0-7.5,1.2-15,3.6-22.1c2.9-8.8,4.4-17.9,4.4-27.2v-14.7c0-7.5,1.2-15,3.6-22.1
			c1.6-4.8,2.7-9.6,3.4-14.5h17V387.4z M348.4,277.3l-9.9,39.4c-1.7,6.8-2.6,13.8-2.6,20.8v6.4h-16v-73c0-5.8-1.4-11.7-4-16.9
			c-4-8-10.7-14.3-18.9-17.8c-29.8-12.8-57.6-29.8-82.5-50.5l-5.7-4.7l4-15.9l69.5,25.3c15.5,29.4,39.6,53.9,68.8,69.8
			C350.7,266,349.8,271.8,348.4,277.3z M360,126.6v64.6l-6,30.2c-1.3,6.5-2,13.1-2,19.7v1.2c-23.7-14.6-43.2-35.6-56-60.4v-70v-8
			V91.3c0-2.9-0.4-5.7-1.1-8.4c0.7,0.2,1.5,0.3,2.2,0.6l9.2,3.1l1.2,2.3c4.7,9.3,14.1,15.2,24.5,15.2c10.4,0,19.7-5.7,24.4-15
			l14.1,2.8C363.7,102.1,360,114.1,360,126.6z M420.1,169.6L378.6,218l-8.9,5.9l3.6-17.8l36.9-46.1l-33.5-41.8
			c1.4-7.8,4.8-15.2,10-21.3c1.6,1.2,3,2.6,4,4.3l30.7,49.2c1.6,2.6,2.5,5.6,2.5,8.7C424,162.9,422.6,166.7,420.1,169.6z"/>
	</g>
</g>
</svg>
