<?xml version="1.0" encoding="iso-8859-1"?>
<!-- Generator: Adobe Illustrator 19.0.0, SVG Export Plug-In . SVG Version: 6.00 Build 0)  -->
<svg version="1.1" id="Capa_1" xmlns="http://www.w3.org/2000/svg" xmlns:xlink="http://www.w3.org/1999/xlink" x="0px" y="0px"
	 viewBox="0 0 496 496" style="enable-background:new 0 0 496 496;" xml:space="preserve">
<g>
	<g>
		<path d="M387.312,368L496,259.312V240h-92.448c2.752-4.728,4.448-10.144,4.448-16c0-14.856-10.216-27.256-23.96-30.848
			c0.208-19.448,7.84-37.712,21.616-51.496l-11.312-11.312c-16.792,16.792-26.096,39.064-26.304,62.784
			C354.256,196.688,344,209.12,344,224c0,5.856,1.696,11.272,4.448,16H264.92c-5.824-29.064-8.92-58.664-8.92-88.328V128h-76.88
			l16.128-92.136C197.264,24.352,207.2,16,218.888,16H248V0h-29.112c-19.472,0-36.04,13.92-39.4,33.104L162.88,128h-19.352
			c-4-35.944-34.536-64-71.528-64C32.304,64,0,96.304,0,136c0,35.8,26.296,65.496,60.568,71c-2.24,18.08-5.568,36.024-9.992,53.696
			C48.864,267.536,48,274.584,48,281.648c0,42.72,31.208,78.192,72,85.064V400h16v48h-24c-22.056,0-40,17.944-40,40v8h176v-8
			c0-22.056-17.944-40-40-40h-24v-48h16v-33.296c40.792-6.872,72-42.344,72-85.064c0-2.256-0.24-4.496-0.416-6.744L364.688,368H368
			v112h-80v16h176v-16h-80V368H387.312z M123.96,115.24c1.624,4.04,2.76,8.32,3.4,12.76h-25.504L123.96,115.24z M80,80.64
			c14.52,2.088,27.248,9.736,35.936,20.752L80,122.144V80.64z M80,151.672V144h80.08l-4.2,24H79.496
			C79.688,162.56,80,157.12,80,151.672z M64,80.64v41.504l-35.936-20.752C36.752,90.376,49.48,82.728,64,80.64z M20.04,156.76
			C17.456,150.336,16,143.336,16,136s1.456-14.336,4.032-20.76L56,136L20.04,156.76z M28.064,170.608L64,149.856v1.816
			c0,13.16-0.784,26.288-1.936,39.392C48.344,188.592,36.368,181.128,28.064,170.608z M208,464c10.432,0,19.328,6.688,22.632,16
			H89.368c3.304-9.312,12.2-16,22.632-16H208z M152,448v-48h16v48H152z M184,384h-48v-16h48V384z M185.648,352H134.36
			C95.56,352,64,320.44,64,281.648c0-5.752,0.704-11.496,2.104-17.064C72.712,238.16,76.88,211.168,78.776,184h74.304
			l-24.96,142.624l15.76,2.76L169.32,184H208v-16h-35.88l4.2-24H240v7.672c0,5.448,0.312,10.88,0.504,16.328H224v16h17.224
			c1.896,27.168,6.064,54.16,12.672,80.584c1.4,5.568,2.104,11.312,2.104,17.064C256,320.44,224.44,352,185.648,352z M368,210.224
			V216h16v-5.776c4.76,2.776,8,7.88,8,13.776c0,8.824-7.176,16-16,16c-8.824,0-16-7.176-16-16C360,218.104,363.24,213,368,210.224z
			 M275.312,256h201.376L444.8,287.888c-12.512-0.56-30.08-4.176-47.176-7.72C378.256,276.152,358.232,272,344,272
			c-20.488,0-37.704,4.376-45.832,6.856L275.312,256z M380.688,352h-9.376l-60.08-60.08C319.424,289.992,331,288,344,288
			c12.592,0,31.8,3.984,50.376,7.832c12.216,2.536,24.68,5.112,35.8,6.68L380.688,352z"/>
	</g>
</g>
<g>
	<g>
		<rect x="224" y="272" width="16" height="16"/>
	</g>
</g>
<g>
	<g>
		<rect x="184" y="216" width="16" height="16"/>
	</g>
</g>
<g>
	<g>
		<rect x="168" y="312" width="16" height="16"/>
	</g>
</g>
<g>
	<g>
		<rect x="80" y="280" width="16" height="16"/>
	</g>
</g>
<g>
	<g>
		<rect x="104" y="208" width="16" height="16"/>
	</g>
</g>
<g>
</g>
<g>
</g>
<g>
</g>
<g>
</g>
<g>
</g>
<g>
</g>
<g>
</g>
<g>
</g>
<g>
</g>
<g>
</g>
<g>
</g>
<g>
</g>
<g>
</g>
<g>
</g>
<g>
</g>
</svg>
