<?xml version="1.0" encoding="iso-8859-1"?>
<!-- Generator: Adobe Illustrator 19.0.0, SVG Export Plug-In . SVG Version: 6.00 Build 0)  -->
<svg version="1.1" id="Capa_1" xmlns="http://www.w3.org/2000/svg" xmlns:xlink="http://www.w3.org/1999/xlink" x="0px" y="0px"
	 viewBox="0 0 480 480" style="enable-background:new 0 0 480 480;" xml:space="preserve">
<g>
	<g>
		<path d="M449.08,400.752c-8.8-4.104-18.76-8.752-37.688-8.752c-18.928,0-28.888,4.648-37.688,8.752
			C365.36,404.64,358.16,408,342.784,408c-15.368,0-22.56-3.36-30.896-7.248c-8.792-4.104-18.744-8.752-37.664-8.752
			c-18.92,0-28.888,4.648-37.68,8.752C228.208,404.64,221.008,408,205.64,408s-22.56-3.36-30.896-7.248
			c-8.792-4.104-18.752-8.752-37.664-8.752c-18.904,0-28.864,4.648-37.648,8.752C91.096,404.64,83.896,408,68.536,408
			s-22.544-3.36-30.88-7.248C28.872,396.648,18.912,392,0,392v16c15.36,0,22.552,3.36,30.888,7.248
			C39.672,419.352,49.632,424,68.536,424c18.912,0,28.872-4.648,37.656-8.752C114.528,411.36,121.72,408,137.08,408
			c15.368,0,22.56,3.36,30.896,7.248c8.792,4.104,18.752,8.752,37.664,8.752c18.92,0,28.88-4.648,37.672-8.752
			c8.336-3.888,15.536-7.248,30.912-7.248c15.36,0,22.552,3.36,30.888,7.248c8.792,4.104,18.752,8.752,37.672,8.752
			c18.928,0,28.888-4.648,37.688-8.752c8.336-3.888,15.544-7.248,30.92-7.248c15.376,0,22.576,3.36,30.92,7.248
			c8.8,4.104,18.76,8.752,37.688,8.752v-16C464.624,408,457.416,404.64,449.08,400.752z"/>
	</g>
</g>
<g>
	<g>
		<path d="M449.08,456.752c-8.8-4.104-18.76-8.752-37.688-8.752c-18.928,0-28.888,4.648-37.688,8.752
			C365.36,460.64,358.16,464,342.784,464c-15.368,0-22.56-3.36-30.896-7.248c-8.792-4.104-18.744-8.752-37.664-8.752
			c-18.92,0-28.888,4.648-37.68,8.752C228.208,460.64,221.008,464,205.64,464s-22.56-3.36-30.896-7.248
			c-8.792-4.104-18.752-8.752-37.664-8.752c-18.904,0-28.864,4.648-37.648,8.752C91.096,460.64,83.896,464,68.536,464
			s-22.544-3.36-30.88-7.248C28.872,452.648,18.912,448,0,448v16c15.36,0,22.552,3.36,30.888,7.248
			C39.672,475.352,49.632,480,68.536,480c18.912,0,28.872-4.648,37.656-8.752C114.528,467.36,121.72,464,137.08,464
			c15.368,0,22.56,3.36,30.896,7.248c8.792,4.104,18.752,8.752,37.664,8.752c18.92,0,28.88-4.648,37.672-8.752
			c8.336-3.888,15.536-7.248,30.912-7.248c15.36,0,22.552,3.36,30.888,7.248c8.792,4.104,18.752,8.752,37.672,8.752
			c18.928,0,28.888-4.648,37.688-8.752c8.336-3.888,15.544-7.248,30.92-7.248c15.376,0,22.576,3.36,30.92,7.248
			c8.8,4.104,18.76,8.752,37.688,8.752v-16C464.624,464,457.416,460.64,449.08,456.752z"/>
	</g>
</g>
<g>
	<g>
		<path d="M200,0c-22.056,0-40,17.944-40,40c0,22.056,17.944,40,40,40c22.056,0,40-17.944,40-40C240,17.944,222.056,0,200,0z
			 M200,64c-13.232,0-24-10.768-24-24s10.768-24,24-24s24,10.768,24,24S213.232,64,200,64z"/>
	</g>
</g>
<g>
	<g>
		<path d="M400,248h80v-16h-80v-56v-32c0-13.232,10.768-24,24-24v-16c-22.056,0-40,17.944-40,40v24h-96v-24
			c0-13.232,10.768-24,24-24v-16c-22.056,0-40,17.944-40,40v32v56H0v16h56v64h16v-64h200v56v32.072
			c-17.432,0.36-27.032,4.752-35.456,8.68C228.208,348.64,221.008,352,205.64,352s-22.56-3.36-30.896-7.248
			c-8.792-4.104-18.752-8.752-37.664-8.752c-18.904,0-28.864,4.648-37.648,8.752C91.096,348.64,83.896,352,68.536,352
			s-22.544-3.36-30.88-7.248C28.872,340.648,18.912,336,0,336v16c15.36,0,22.552,3.36,30.888,7.248
			C39.672,363.352,49.632,368,68.536,368c18.912,0,28.872-4.648,37.656-8.752C114.528,355.36,121.72,352,137.08,352
			c15.368,0,22.56,3.36,30.896,7.248c8.792,4.104,18.752,8.752,37.664,8.752c18.92,0,28.88-4.648,37.672-8.752
			c8.336-3.888,15.536-7.248,30.912-7.248c15.36,0,22.552,3.36,30.888,7.248c8.792,4.104,18.752,8.752,37.672,8.752
			c18.928,0,28.888-4.648,37.688-8.752c8.336-3.888,15.544-7.248,30.92-7.248c15.376,0,22.576,3.36,30.92,7.248
			c8.8,4.104,18.76,8.752,37.688,8.752v-16c-15.376,0-22.584-3.36-30.92-7.248c-8.8-4.104-18.76-8.752-37.688-8.752
			c-4.232,0-7.968,0.264-11.392,0.672V304V248z M288,184h96v48h-96V184z M288,248h96v48h-96V248z M384.008,340.368
			c-3.824,1.376-7.152,2.912-10.304,4.384C365.36,348.64,358.16,352,342.784,352c-15.368,0-22.56-3.36-30.896-7.248
			c-6.352-2.968-13.368-6.192-23.88-7.768V312h96V340.368z"/>
	</g>
</g>
<g>
	<g>
		<path d="M448,24c-3.672,0-7.272,0.64-10.688,1.864C431.608,10.68,417.008,0,400,0s-31.608,10.68-37.312,25.864
			C359.272,24.64,355.672,24,352,24c-17.648,0-32,14.352-32,32s14.352,32,32,32h96c17.648,0,32-14.352,32-32S465.648,24,448,24z
			 M448,72h-96c-8.824,0-16-7.176-16-16s7.176-16,16-16c3.936,0,7.76,1.512,10.76,4.264c2.296,2.096,5.584,2.672,8.44,1.504
			c2.864-1.176,4.8-3.896,4.96-6.992C376.816,26,387.28,16,400,16c12.72,0,23.184,10,23.84,22.776
			c0.168,3.096,2.096,5.816,4.96,6.992c2.848,1.168,6.144,0.592,8.44-1.504c3-2.752,6.824-4.264,10.76-4.264c8.824,0,16,7.176,16,16
			S456.824,72,448,72z"/>
	</g>
</g>
<g>
	<g>
		<path d="M128,64c-3.672,0-7.272,0.64-10.688,1.864C111.608,50.68,97.008,40,80,40S48.392,50.68,42.688,65.864
			C39.272,64.64,35.672,64,32,64C14.352,64,0,78.352,0,96s14.352,32,32,32h96c17.648,0,32-14.352,32-32S145.648,64,128,64z M128,112
			H32c-8.824,0-16-7.176-16-16s7.176-16,16-16c3.936,0,7.76,1.512,10.76,4.264c2.288,2.096,5.584,2.68,8.44,1.504
			c2.864-1.176,4.8-3.896,4.96-6.992C56.816,66,67.28,56,80,56c12.72,0,23.184,10,23.84,22.776c0.168,3.096,2.096,5.816,4.96,6.992
			c2.848,1.176,6.152,0.592,8.44-1.504c3-2.752,6.824-4.264,10.76-4.264c8.824,0,16,7.176,16,16S136.824,112,128,112z"/>
	</g>
</g>
<g>
</g>
<g>
</g>
<g>
</g>
<g>
</g>
<g>
</g>
<g>
</g>
<g>
</g>
<g>
</g>
<g>
</g>
<g>
</g>
<g>
</g>
<g>
</g>
<g>
</g>
<g>
</g>
<g>
</g>
</svg>
