<?xml version="1.0" encoding="iso-8859-1"?>
<!-- Generator: Adobe Illustrator 17.1.0, SVG Export Plug-In . SVG Version: 6.00 Build 0)  -->
<!DOCTYPE svg PUBLIC "-//W3C//DTD SVG 1.1//EN" "http://www.w3.org/Graphics/SVG/1.1/DTD/svg11.dtd">
<svg version="1.1" id="Capa_1" xmlns="http://www.w3.org/2000/svg" xmlns:xlink="http://www.w3.org/1999/xlink" x="0px" y="0px"
	 viewBox="0 0 449.109 449.109" style="enable-background:new 0 0 449.109 449.109;" xml:space="preserve">
<path d="M348.258,326.711c-30.156-9.015-72.894-13.78-123.594-13.78c-43.175,0-101.098,3.449-139.197,19.288V188.103l140.999-78.614
	c3.465-1.932,5.449-4.944,5.443-8.265c-0.005-3.32-1.999-6.326-5.471-8.246L61.102,1.508C59.293,0.507,57.459,0,55.652,0
	c-2.684,0-5.077,1.123-6.738,3.161c-1.459,1.791-2.23,4.16-2.228,6.853l0.013,19.849h-0.022l0.004,5.004
	c0.002,3.38,0.263,338.05,0.263,339.484c0,0.243-0.005,0.577-0.009,0.862l-0.007,0.593c-0.01,8.996,4.322,17.898,12.875,26.461
	c13.074,13.089,35.991,24.913,64.527,33.293c30.179,8.863,64.874,13.548,100.333,13.548c93.037,0,177.768-34.936,177.768-73.297
	C402.431,353.977,384.205,337.458,348.258,326.711z M165.446,365.098c0,8.714-14.484,18.424-35.269,18.424
	s-35.269-9.71-35.269-18.424c0-8.715,14.484-18.425,35.269-18.425S165.446,356.383,165.446,365.098z"/>
<g>
</g>
<g>
</g>
<g>
</g>
<g>
</g>
<g>
</g>
<g>
</g>
<g>
</g>
<g>
</g>
<g>
</g>
<g>
</g>
<g>
</g>
<g>
</g>
<g>
</g>
<g>
</g>
<g>
</g>
</svg>
